<svg width="272" height="41" viewBox="0 0 272 41" fill="none" xmlns="http://www.w3.org/2000/svg">
<path d="M50.605 10.5302C50.0538 9.1147 49.3176 7.75417 48.3887 6.51305C48.1558 6.20203 47.9248 5.89004 47.6603 5.6044C47.4037 5.30966 47.1487 5.01458 46.8564 4.75595L46.0015 3.95336C45.7075 3.697 45.3902 3.46537 45.0836 3.2243C42.5597 1.35919 39.5012 0.293413 36.4313 0.0516936C33.3546 -0.182543 30.2643 0.387433 27.4741 1.59538C26.0828 2.20309 24.763 2.98453 23.5772 3.88699C22.3871 4.78783 21.3086 5.79049 20.3217 6.84781C19.8451 7.35695 19.3895 7.88854 18.9661 8.38857C18.4438 7.73303 17.8484 7.1315 17.1833 6.60739C14.7714 4.7143 11.5928 4.12546 8.71759 4.75172C7.28095 5.06533 5.9092 5.69192 4.76326 6.57811C3.60694 7.45097 2.64918 8.55839 1.93249 9.77804C1.21125 10.9961 0.698624 12.314 0.360553 13.6576C0.189895 14.331 0.0786114 15.0175 0.0305936 15.7072C-0.0170997 16.3926 -0.0187222 17.0875 0.0964556 17.7688C0.392349 16.4284 0.712576 15.1336 1.11846 13.8687C1.52434 12.6087 2.0694 11.3959 2.79648 10.3132C4.22663 8.14229 6.49158 6.56282 8.99759 6.18316C10.2431 5.97821 11.5257 6.0475 12.7323 6.3686C13.3299 6.53354 13.9285 6.74891 14.4596 7.04105L14.8606 7.25642C14.9891 7.33613 15.1108 7.42722 15.237 7.51115C15.3599 7.59932 15.4917 7.67414 15.6085 7.77272L15.9553 8.06942C16.6032 8.63354 17.1548 9.30209 17.6109 10.0347C17.6028 10.0451 17.5944 10.0552 17.5863 10.0653C16.7148 11.1779 15.8671 12.3543 15.1461 13.6576C14.9667 13.9842 14.7948 14.3157 14.6332 14.6603C14.5505 14.8294 14.4788 15.0057 14.4002 15.1808C14.3246 15.3526 14.2448 15.5569 14.1773 15.7501C13.9042 16.528 13.7264 17.3683 13.728 18.2623C13.7293 19.1732 13.9528 20.1674 14.5654 21.0429C14.7175 21.2556 14.9018 21.4772 15.0968 21.6447C15.299 21.8155 15.4647 21.985 15.7292 22.1353C16.1792 22.4473 16.8715 22.6663 17.5289 22.6354C17.8699 22.6285 18.1716 22.5472 18.4694 22.4509C18.7368 22.3361 19.0067 22.2108 19.2153 22.0559C19.4476 21.9099 19.6167 21.743 19.8035 21.58C19.9622 21.4089 20.1312 21.2371 20.2607 21.0601C20.8083 20.3476 21.1665 19.5887 21.3813 18.7282C21.7249 17.2154 21.733 15.6821 21.4945 14.2093C21.3521 13.3368 21.1208 12.4845 20.809 11.663C21.0724 11.3647 21.3385 11.066 21.6107 10.769C22.0721 10.2621 22.4993 9.79561 22.9532 9.34568C23.8562 8.44582 24.812 7.62274 25.8243 6.91418C26.8381 6.20626 27.8962 5.61481 29.0174 5.1509C31.2558 4.23575 33.7105 3.84925 36.0874 4.07731C38.4646 4.27999 40.7542 5.10893 42.613 6.50036C42.8378 6.68417 43.075 6.85334 43.291 7.04821L43.9211 7.64747C44.1414 7.83713 44.3244 8.06551 44.5181 8.28088C44.7189 8.49104 44.8922 8.72788 45.0696 8.95952C45.7727 9.89289 46.3616 10.9297 46.8229 12.028C47.7515 14.2279 48.1665 16.677 48.0737 19.0981C47.9656 21.5087 47.2658 23.9175 46.091 26.1678C44.9204 28.4191 43.2985 30.5021 41.4407 32.391C39.5833 34.2746 37.4841 35.9442 35.1829 37.3399C34.035 38.0374 32.8433 38.675 31.6179 39.2535C30.3915 39.8264 29.1459 40.3648 27.9017 40.9666C29.2734 40.777 30.6056 40.4025 31.905 39.935C33.2041 39.4708 34.4834 38.9389 35.7338 38.3341C38.2287 37.1287 40.6293 35.6475 42.8057 33.8722C44.9808 32.1047 47.0007 30.0636 48.6272 27.6509C49.4305 26.4388 50.1131 25.1293 50.6524 23.7483C51.1984 22.3738 51.5508 20.8909 51.7282 19.4026C52.0929 16.4261 51.6997 13.3671 50.605 10.5302ZM18.8393 18.0759C18.7001 18.5261 18.438 19.004 18.1258 19.3486C17.8283 19.7146 17.4559 19.857 17.4523 19.7982C17.4344 19.7741 17.4309 19.8024 17.33 19.711C17.2891 19.6989 17.2274 19.6092 17.169 19.5623C17.1081 19.5057 17.0811 19.4562 17.0389 19.3905C16.8871 19.1332 16.7989 18.7435 16.8255 18.3065C16.8485 17.8442 16.9721 17.3406 17.1733 16.852C17.2664 16.6161 17.4069 16.3484 17.5444 16.08C17.6869 15.8158 17.8387 15.551 17.9996 15.2894C18.3108 14.7868 18.6573 14.2933 19.0268 13.8063C19.0677 14.0454 19.1031 14.2848 19.128 14.5246C19.2523 15.7364 19.1637 16.9571 18.8393 18.0759Z" fill="#B39262"/>
<path d="M214.806 22.4578C215.072 21.0725 215.739 19.9882 216.808 19.2087C217.874 18.4334 219.039 18.043 220.3 18.043C221.588 18.043 222.689 18.4217 223.613 19.1755C224.533 19.9293 225.139 21.0231 225.433 22.4578H214.806ZM229.325 23.8443C229.229 21.1691 228.313 18.9728 226.579 17.2603C224.843 15.5432 222.752 14.6857 220.3 14.6857C217.681 14.6857 215.467 15.5806 213.662 17.3686C211.854 19.1566 210.95 21.4616 210.95 24.2815C210.95 27.0787 211.854 29.3642 213.662 31.1401C215.467 32.9181 217.633 33.8039 220.156 33.8039C222.193 33.8039 223.969 33.3234 225.487 32.3647C227 31.4014 228.123 29.9875 228.853 28.1133L225.467 27.3839C224.425 29.4777 222.654 30.5204 220.156 30.5204C218.773 30.5204 217.56 30.033 216.517 29.0623C215.472 28.0908 214.866 26.7895 214.698 25.1596H229.326V23.8443H229.325ZM221.537 7.42334L218.881 12.6055H222.121L225.977 7.42334H221.537Z" fill="#222222"/>
<path d="M245.678 28.7522C244.563 29.8808 243.155 30.4488 241.454 30.4488C239.881 30.4488 238.498 29.87 237.309 28.7174C236.117 27.5615 235.525 26.0676 235.525 24.2461C235.525 22.4206 236.117 20.9336 237.309 19.7748C238.498 18.6211 239.881 18.0456 241.454 18.0456C243.154 18.0456 244.563 18.6071 245.678 19.7399C246.792 20.8701 247.352 22.3748 247.352 24.2461C247.352 26.1177 246.792 27.6201 245.678 28.7522ZM248.371 17.3875C246.601 15.5865 244.498 14.6856 242.076 14.6856C239.359 14.6856 237.174 15.5491 235.525 17.2788V7.02252H231.742V33.2961H235.525V31.2156C237.174 32.9415 239.359 33.8036 242.076 33.8036C244.526 33.8036 246.627 32.9109 248.386 31.1229C250.147 29.3368 251.026 27.0436 251.026 24.2457C251.025 21.4743 250.14 19.1885 248.371 17.3875Z" fill="#222222"/>
<path d="M257.301 22.4578C257.567 21.0725 258.231 19.9882 259.3 19.2087C260.369 18.4334 261.532 18.043 262.793 18.043C264.078 18.043 265.184 18.4217 266.103 19.1755C267.026 19.9293 267.632 21.0231 267.924 22.4578H257.301ZM271.815 23.8443C271.72 21.1691 270.805 18.9728 269.07 17.2603C267.332 15.5432 265.244 14.6857 262.793 14.6857C260.173 14.6857 257.961 15.5806 256.154 17.3686C254.345 19.1566 253.442 21.4616 253.442 24.2815C253.442 27.0787 254.345 29.3642 256.154 31.1401C257.961 32.9181 260.124 33.8039 262.649 33.8039C264.682 33.8039 266.461 33.3234 267.976 32.3647C269.493 31.4014 270.618 29.9875 271.342 28.1133L267.962 27.3839C266.918 29.4777 265.146 30.5204 262.649 30.5204C261.265 30.5204 260.053 30.033 259.009 29.0623C257.965 28.0908 257.359 26.7895 257.192 25.1596H271.815V23.8443H271.815ZM264.032 7.42334L261.376 12.6055H264.613L268.47 7.42334H264.032Z" fill="#222222"/>
<path d="M99.0384 28.7174C97.8483 29.8701 96.4665 30.4488 94.8913 30.4488C93.1915 30.4488 91.7838 29.8821 90.67 28.7522C89.5539 27.6201 88.9952 26.1197 88.9952 24.2477C88.9952 22.3732 89.5539 20.8698 90.67 19.7397C91.7841 18.6072 93.1915 18.0453 94.8913 18.0453C96.4662 18.0453 97.848 18.6215 99.0384 19.7745C100.228 20.932 100.821 22.42 100.821 24.2477C100.821 26.0702 100.228 27.5615 99.0384 28.7174ZM100.821 15.1977V17.2789C99.1717 15.5491 96.9875 14.6857 94.2729 14.6857C91.8464 14.6857 89.7466 15.5865 87.9761 17.3875C86.2056 19.1885 85.3192 21.4743 85.3192 24.2477C85.3192 27.0436 86.1991 29.3369 87.9573 31.1229C89.719 32.9109 91.8214 33.8036 94.2729 33.8036C96.9872 33.8036 99.1714 32.9415 100.821 31.2156V33.2961H104.605V15.1977H100.821Z" fill="#222222"/>
<path d="M120.738 28.732C119.548 29.8765 118.167 30.4488 116.591 30.4488C114.917 30.4488 113.523 29.8821 112.408 28.7522C111.288 27.6201 110.732 26.1196 110.732 24.2471C110.732 22.3972 111.288 20.9017 112.408 19.7585C113.522 18.613 114.917 18.0456 116.591 18.0456C118.167 18.0456 119.548 18.6218 120.738 19.7748C121.926 20.9336 122.522 22.4203 122.522 24.2474C122.522 26.0949 121.926 27.5888 120.738 28.732ZM122.522 7.02252V17.2792C120.847 15.5484 118.664 14.686 115.971 14.686C113.548 14.686 111.448 15.5861 109.677 17.3878C107.906 19.1888 107.02 21.4739 107.02 24.2474C107.02 27.0185 107.906 29.3066 109.677 31.1073C111.448 32.9073 113.548 33.8039 115.971 33.8039C118.638 33.8039 120.822 32.9532 122.522 31.2533V33.2961H126.342V7.02252H122.522Z" fill="#222222"/>
<path d="M132.616 22.4597C132.881 21.0725 133.548 19.9875 134.617 19.2116C135.683 18.4338 136.847 18.0456 138.108 18.0456C139.395 18.0456 140.497 18.4207 141.42 19.1758C142.344 19.9296 142.949 21.0234 143.241 22.46H132.616V22.4597ZM147.134 23.8456C147.036 21.1691 146.121 18.9728 144.388 17.2603C142.651 15.5432 140.56 14.685 138.108 14.685C135.491 14.685 133.275 15.5826 131.47 17.369C129.662 19.157 128.76 21.4619 128.76 24.2822C128.76 27.0787 129.662 29.3642 131.47 31.1401C133.275 32.918 135.442 33.8039 137.963 33.8039C140.002 33.8039 141.778 33.3254 143.294 32.3647C144.811 31.404 145.932 29.9875 146.663 28.1133L143.275 27.3839C142.235 29.4777 140.464 30.5204 137.963 30.5204C136.581 30.5204 135.368 30.033 134.327 29.0623C133.281 28.0908 132.677 26.7895 132.506 25.1596H147.134V23.8456H147.134Z" fill="#222222"/>
<path d="M158.732 7.71224C159.192 8.17225 159.419 8.72759 159.419 9.3789C159.419 10.0592 159.197 10.6148 158.749 11.0491C158.305 11.4841 157.731 11.7011 157.031 11.7011C156.333 11.7011 155.754 11.4841 155.298 11.0491C154.84 10.6151 154.609 10.0595 154.609 9.3789C154.609 8.72759 154.84 8.17225 155.298 7.71224C155.754 7.25222 156.333 7.02319 157.031 7.02319C157.71 7.02319 158.274 7.25222 158.732 7.71224ZM155.152 15.3005H158.912V33.286H155.152V15.3005Z" fill="#222222"/>
<path d="M176.515 16.9132C177.84 18.3287 178.505 20.1577 178.505 22.4076V33.286H174.707V23.1683C174.707 21.6955 174.315 20.511 173.532 19.614C172.749 18.72 171.717 18.2721 170.44 18.2721C168.776 18.2721 167.469 18.8404 166.517 19.9781C165.565 21.1145 165.09 22.7837 165.09 24.981V33.2856H161.33V15.2995H165.09V17.5124C166.607 15.6997 168.682 14.7917 171.309 14.7917C173.453 14.7917 175.19 15.5003 176.515 16.9132Z" fill="#222222"/>
<path fill-rule="evenodd" clip-rule="evenodd" d="M69.3926 9.81646C67.9625 8.23536 65.934 7.32086 63.7998 7.32086C59.6427 7.32086 56.2435 10.7319 56.2435 14.8994V33.7223C56.2435 33.8241 56.3256 33.9057 56.4262 33.9057H59.6693C59.7693 33.9057 59.852 33.8238 59.852 33.7223V14.8994C59.852 12.7226 61.6303 10.9395 63.7995 10.9395C65.9691 10.9395 67.747 12.7223 67.747 14.8994V33.7223C67.747 33.8241 67.8291 33.9057 67.9294 33.9057H71.1725C71.2731 33.9057 71.3552 33.8238 71.3552 33.7223V14.8994C71.3552 12.7226 73.1344 10.9395 75.3024 10.9395C77.4719 10.9395 79.2496 12.7223 79.2496 14.8994V33.7223C79.2496 33.8241 79.3329 33.9057 79.4322 33.9057H82.677C82.7769 33.9057 82.8587 33.8238 82.8587 33.7223V14.8994C82.8587 10.7319 79.4614 7.32086 75.3024 7.32086C73.1679 7.32086 71.1404 8.23536 69.7093 9.81646C69.6674 9.86168 69.6136 9.88575 69.5506 9.88575C69.4896 9.88575 69.4361 9.86168 69.3926 9.81646Z" fill="#222222"/>
<path d="M205.937 20.6164C205.937 20.5558 205.958 20.5012 206.005 20.4602C207.581 19.0268 208.489 16.9967 208.489 14.8593C208.489 10.6977 205.093 7.29252 200.945 7.29252L186.6 7.28308V33.9308H187.635C187.647 33.9334 187.655 33.9434 187.666 33.9434H200.945C205.093 33.9434 208.49 30.5402 208.49 26.3789C208.49 24.2395 207.581 22.2095 206.006 20.7784C205.957 20.7341 205.937 20.6808 205.937 20.6164ZM200.945 30.3294H190.178V22.4268H200.945C203.11 22.4268 204.887 24.2073 204.887 26.3789C204.887 28.5495 203.112 30.3294 200.945 30.3294ZM200.945 18.8124H190.178V10.9072H200.945C203.112 10.9072 204.887 12.6868 204.887 14.8593C204.887 17.0319 203.112 18.8124 200.945 18.8124Z" fill="#222222"/>
</svg>
